# Blender 3.6.1
# www.blender.org
mtllib cube.mtl
o Cube
v 1.000000 1.000000 -1.000000
v 1.000000 -1.000000 -1.000000
v 1.000000 1.000000 1.000000
v 1.000000 -1.000000 1.000000
v -1.000000 1.000000 -1.000000
v -1.000000 -1.000000 -1.000000
v -1.000000 1.000000 1.000000
v -1.000000 -1.000000 1.000000
vn -0.0000 1.0000 -0.0000
vn -0.0000 -0.0000 1.0000
vn -1.0000 -0.0000 -0.0000
vn -0.0000 -1.0000 -0.0000
vn 1.0000 -0.0000 -0.0000
vn -0.0000 -0.0000 -1.0000
vt 0.999000 -0.000762
vt -0.000524 0.999556
vt 0.001000 0.000000
vt 0.995417 -0.000913
vt 0.004583 1.000000
vt 0.004583 -0.000913
vt 1.000456 0.000000
vt -0.000456 0.998393
vt 0.004583 0.000000
vt 1.002441 0.001071
vt -0.000992 0.996944
vt -0.000992 0.006111
vt 1.000226 0.000942
vt 0.001079 0.999040
vt 0.000173 0.000756
vt 0.995417 0.003055
vt -0.002976 1.001449
vt 0.007103 0.003055
vt 0.999000 1.002000
vt 0.995417 1.000000
vt 0.995417 0.995873
vt 0.999921 1.001984
vt 0.999637 0.999464
vt 1.000559 0.999119
s 0
usemtl wood
f 5/1/1 3/2/1 1/3/1
f 3/4/2 8/5/2 4/6/2
f 7/7/3 6/8/3 8/9/3
f 2/10/4 8/11/4 6/12/4
f 1/13/5 4/14/5 2/15/5
f 5/16/6 2/17/6 6/18/6
f 5/1/1 7/19/1 3/2/1
f 3/4/2 7/20/2 8/5/2
f 7/7/3 5/21/3 6/8/3
f 2/10/4 4/22/4 8/11/4
f 1/13/5 3/23/5 4/14/5
f 5/16/6 1/24/6 2/17/6
